HIERARCHY
ROOT SpineBase
{
  OFFSET 0.000000 0.000000 0.000000
  CHANNELS 6 Xposition Yposition Zposition Zrotation Xrotation Yrotation
  JOINT SpineMid
  {
    OFFSET -0.000000 30.895031 0.000000
    CHANNELS 3 Zrotation Xrotation Yrotation
    JOINT SpineShoulder
    {
      OFFSET 0.748313 23.487828 -0.840631
      CHANNELS 3 Zrotation Xrotation Yrotation
      JOINT Neck
      {
        OFFSET 0.192181 7.854921 -0.628014
        CHANNELS 3 Zrotation Xrotation Yrotation
        JOINT Head
        {
          OFFSET -5.763646 10.493130 4.623747
          CHANNELS 3 Zrotation Xrotation Yrotation
          End Site
          {
            OFFSET 0 0 0
          }
        }
      }
      JOINT ShoulderLeft
      {
        OFFSET -10.260189 -10.319210 23.063134
        CHANNELS 3 Zrotation Xrotation Yrotation
        JOINT ElbowLeft
        {
          OFFSET 0.750147 -11.975220 -26.786711
          CHANNELS 3 Zrotation Xrotation Yrotation
          JOINT WristLeft
          {
            OFFSET -1.697812 -24.999349 -13.123680
            CHANNELS 3 Zrotation Xrotation Yrotation
            JOINT HandLeft
            {
              OFFSET 1.215384 -8.796678 -2.787798
              CHANNELS 3 Zrotation Xrotation Yrotation
              JOINT HandTipLeft
              {
                OFFSET -1.587022 -6.341705 -2.523684
                CHANNELS 3 Zrotation Xrotation Yrotation
                End Site
                {
                  OFFSET 0 0 0
                }
              }
              JOINT ThumbLeft
              {
                OFFSET -0.262779 2.940162 -4.124778
                CHANNELS 3 Zrotation Xrotation Yrotation
                End Site
                {
                  OFFSET 0 0 0
                }
              }
            }
          }
        }
      }
      JOINT ShoulderRight
      {
        OFFSET 2.114712 -5.367254 -14.963575
        CHANNELS 3 Zrotation Xrotation Yrotation
        JOINT ElbowRight
        {
          OFFSET -4.902985 -27.027583 -6.392155
          CHANNELS 3 Zrotation Xrotation Yrotation
          JOINT WristRight
          {
            OFFSET -7.187282 -23.270245 1.069553
            CHANNELS 3 Zrotation Xrotation Yrotation
            JOINT HandRight
            {
              OFFSET -1.094059 -6.278007 0.346106
              CHANNELS 3 Zrotation Xrotation Yrotation
              JOINT HandTipRight
              {
                OFFSET -2.753396 -6.373291 1.883416
                CHANNELS 3 Zrotation Xrotation Yrotation
                End Site
                {
                  OFFSET 0 0 0
                }
              }
              JOINT ThumbRight
              {
                OFFSET -2.570993 0.818800 -2.160375
                CHANNELS 3 Zrotation Xrotation Yrotation
                End Site
                {
                  OFFSET 0 0 0
                }
              }
            }
          }
        }
      }
    }
  }
  JOINT HipLeft
  {
    OFFSET -1.778336 0.005613 -0.676028
    CHANNELS 3 Zrotation Xrotation Yrotation
    JOINT KneeLeft
    {
      OFFSET 6.452966 -35.956200 8.022777
      CHANNELS 3 Zrotation Xrotation Yrotation
      JOINT AnkleLeft
      {
        OFFSET 5.035360 -43.266178 8.929487
        CHANNELS 3 Zrotation Xrotation Yrotation
        JOINT FootLeft
        {
          OFFSET -12.783027 -1.397458 -3.599071
          CHANNELS 3 Zrotation Xrotation Yrotation
          End Site
          {
            OFFSET 0 0 0
          }
        }
      }
    }
  }
  JOINT HipRight
  {
    OFFSET 1.825391 1.436451 -8.153123
    CHANNELS 3 Zrotation Xrotation Yrotation
    JOINT KneeRight
    {
      OFFSET -6.331824 -37.591068 0.965149
      CHANNELS 3 Zrotation Xrotation Yrotation
      JOINT AnkleRight
      {
        OFFSET 4.261919 -26.439802 3.321721
        CHANNELS 3 Zrotation Xrotation Yrotation
        JOINT FootRight
        {
          OFFSET -10.844524 -2.610991 -7.945034
          CHANNELS 3 Zrotation Xrotation Yrotation
          End Site
          {
            OFFSET 0 0 0
          }
        }
      }
    }
  }
}
MOTION
Frames: 10
Frame Time: 0.033333
-15.185999 83.385983 355.255963 -0.298735 2.975530 65.681073 1.104100 -1.854691 -65.635505 -0.757568 -0.258754 0.032368 -10.716020 1.188011 6.529246 0.000000 0.000000 0.000000 -1.491732 -1.056217 0.925092 0.369478 -1.907201 -0.975915 2.088405 -7.284752 -1.564335 -3.893382 -1.582333 4.941118 0.000000 0.000000 0.000000 0.000000 0.000000 0.000000 -6.583903 -1.134115 0.720999 9.579444 -3.630254 0.044627 -4.914230 -10.128971 1.311963 9.139183 21.204735 -6.668442 0.000000 0.000000 0.000000 0.000000 0.000000 0.000000 3.730513 6.654546 -65.425154 10.165517 4.392138 2.786153 0.063447 -14.268242 -19.154010 0.000000 0.000000 0.000000 -6.797185 -10.528570 -64.702269 -21.097993 20.337930 2.881497 40.633097 -27.477314 10.706590 0.000000 0.000000 0.000000
-17.375873 83.453109 357.219490 -0.456411 2.958470 63.266149 1.049039 -1.789833 -63.224634 -0.659748 -0.053445 0.025421 -9.478433 3.067866 7.214391 0.000000 0.000000 0.000000 -1.715632 -0.954432 1.706587 -0.229772 -1.953996 -1.301063 2.923894 -8.287501 -2.145781 -4.969082 -1.875420 5.893179 0.000000 0.000000 0.000000 0.000000 0.000000 0.000000 -7.370542 -0.691378 0.844314 10.772127 -4.990333 0.322863 -4.857657 -9.870768 1.231199 8.959528 20.874472 -6.355037 0.000000 0.000000 0.000000 0.000000 0.000000 0.000000 5.055386 2.473121 -61.857869 4.342586 6.025397 1.198293 -2.802969 -13.921079 -14.608894 0.000000 0.000000 0.000000 -6.145531 -15.490457 -61.956592 -25.776461 23.238980 3.816386 32.155479 -24.096130 3.770354 0.000000 0.000000 0.000000
-19.561544 83.430072 358.964584 -0.402563 2.934793 60.289540 1.142431 -1.737015 -60.246088 -0.545811 -0.002035 0.038466 -10.278552 3.477716 7.764618 0.000000 0.000000 0.000000 -2.283702 -0.657559 2.533319 -0.286790 -1.920001 -1.967414 4.794505 -10.302767 -2.877874 -7.364133 -0.305286 7.233393 0.000000 0.000000 0.000000 0.000000 0.000000 0.000000 -8.827027 0.107386 0.986291 12.316186 -6.884176 0.723436 -4.048837 -7.889005 0.895693 6.744349 20.337571 -6.145993 0.000000 0.000000 0.000000 0.000000 0.000000 0.000000 4.921473 1.251576 -58.638428 3.908436 8.756923 1.224355 -5.365554 -16.147898 -6.836197 0.000000 0.000000 0.000000 -3.458991 -19.890919 -58.413638 -29.915192 24.575038 4.408849 25.152536 -21.128723 0.614779 0.000000 0.000000 0.000000
-22.156632 83.619644 360.875845 -0.111973 2.795745 55.755100 1.212424 -1.611706 -55.710031 -0.487284 0.040431 0.052809 -12.024491 3.433054 8.366818 0.000000 0.000000 0.000000 -2.949795 -0.910293 3.294537 -0.277086 -1.288114 -2.590142 5.167305 -12.116957 -3.237241 -7.641570 2.069140 7.483553 0.000000 0.000000 0.000000 0.000000 0.000000 0.000000 -12.753790 2.686399 1.528155 16.935471 -10.223540 1.358925 -3.788749 -5.841966 0.526550 3.150438 17.846488 -5.045437 0.000000 0.000000 0.000000 0.000000 0.000000 0.000000 3.709033 2.341847 -54.503515 7.435899 12.034960 2.223355 -11.513920 -18.411529 -1.406696 0.000000 0.000000 0.000000 1.573057 -22.732071 -52.889692 -31.299283 23.628222 3.929350 17.654506 -18.369895 -0.552302 0.000000 0.000000 0.000000
-25.036532 83.581771 363.262648 0.578384 2.254219 54.075447 1.263633 -1.554907 -54.013861 -0.443190 0.115564 0.082041 -12.407172 4.761324 8.742291 0.000000 0.000000 0.000000 -3.675888 -1.409893 3.226027 -0.143394 -0.118864 -2.627266 1.486861 -15.320985 -2.909692 -5.252894 7.109138 6.811931 0.000000 0.000000 0.000000 0.000000 0.000000 0.000000 -16.114287 5.213189 2.038387 20.714098 -13.050906 2.267961 -3.645068 -4.492313 0.255661 -0.053811 17.899642 -5.224521 0.000000 0.000000 0.000000 0.000000 0.000000 0.000000 1.831149 5.646135 -53.648438 13.943976 15.420954 3.812671 -18.519653 -21.274409 3.696490 0.000000 0.000000 0.000000 4.818988 -22.856645 -50.718822 -27.607636 22.557283 2.898406 10.960879 -18.293108 -0.954061 0.000000 0.000000 0.000000
-27.694635 83.482360 365.519861 1.348040 1.476192 56.037929 1.211383 -1.513485 -55.950865 -0.407099 0.219071 0.107999 -12.691239 5.596492 8.666884 0.000000 0.000000 0.000000 -4.390626 -2.588984 3.085350 0.043301 1.559768 -2.596588 -1.575427 -18.844029 -3.011999 -0.887024 13.335070 4.703676 0.000000 0.000000 0.000000 0.000000 0.000000 0.000000 -18.835415 6.952290 2.590237 24.284828 -14.905128 3.152142 -5.001150 -3.621024 0.024939 -0.194830 20.198664 -6.394597 0.000000 0.000000 0.000000 0.000000 0.000000 0.000000 1.946892 16.447215 -56.973084 32.995202 11.669667 9.215687 -28.570145 -20.780591 9.657503 0.000000 0.000000 0.000000 6.630997 -20.799050 -53.013357 -19.390334 18.742935 1.517783 4.293027 -18.606663 -2.201714 0.000000 0.000000 0.000000
-30.890865 83.415629 368.119041 2.577765 0.711046 58.080956 1.161126 -1.384865 -57.951703 -0.545143 0.205677 0.140244 -13.220867 5.621090 8.064539 0.000000 0.000000 0.000000 -5.270418 -3.728223 2.814462 0.231897 3.302284 -2.486912 -2.588515 -20.854663 -3.207181 1.953401 16.069285 3.100278 0.000000 0.000000 0.000000 0.000000 0.000000 0.000000 -19.632129 7.039876 2.681446 24.828786 -14.813604 3.267036 -3.970046 -1.958000 -0.327990 -1.844413 18.724579 -5.949243 0.000000 0.000000 0.000000 0.000000 0.000000 0.000000 0.679997 25.787700 -60.439630 46.002838 11.864619 13.592146 -32.178143 -20.540739 12.031728 0.000000 0.000000 0.000000 7.818820 -20.544009 -55.100554 -15.673999 19.036642 1.304078 -2.777453 -19.384675 -1.602569 0.000000 0.000000 0.000000
-34.479884 83.553382 370.220027 3.300604 0.112578 57.978357 1.251699 -1.433571 -57.800182 -0.547478 0.205440 0.173081 -14.074141 4.952411 7.356498 0.000000 0.000000 0.000000 -5.969883 -5.455875 2.424155 0.418915 4.935295 -2.257782 -3.260351 -20.487593 -3.066624 7.867631 14.458246 -0.358857 0.000000 0.000000 0.000000 0.000000 0.000000 0.000000 -22.098650 8.930195 3.204615 26.948338 -16.587129 4.014385 -2.193839 -1.589908 -0.435400 -3.738342 20.060026 -6.548027 0.000000 0.000000 0.000000 0.000000 0.000000 0.000000 -0.633504 32.068233 -61.023139 53.040723 10.848506 16.279636 -31.677706 -18.636637 3.832679 0.000000 0.000000 0.000000 8.245476 -20.693975 -54.889686 -12.991115 21.603838 1.069044 -10.495158 -18.458367 -3.982847 0.000000 0.000000 0.000000
-38.262778 84.971464 372.245677 4.272169 -0.479212 58.588228 1.263444 -1.383512 -58.352903 -0.583285 0.230348 0.206620 -10.451670 5.756600 5.175613 0.000000 0.000000 0.000000 -6.080030 -5.237623 0.441869 0.594465 5.169420 -0.937536 -4.041252 -19.369437 -2.242586 13.879449 10.050397 -3.505703 0.000000 0.000000 0.000000 0.000000 0.000000 0.000000 -22.221529 8.817662 3.086486 25.320604 -15.326988 3.313151 0.905632 -0.695380 -0.574566 -4.718549 22.293864 -8.208855 0.000000 0.000000 0.000000 0.000000 0.000000 0.000000 -0.783301 36.576905 -62.140756 54.046413 7.554118 17.389416 -24.314181 -17.748313 -1.027340 0.000000 0.000000 0.000000 7.494602 -20.277190 -55.574771 -13.872984 24.596160 1.166546 -12.462527 -18.813624 -4.569952 0.000000 0.000000 0.000000
-41.710682 85.005607 374.575489 4.914795 -1.160088 49.952625 1.349473 -1.093569 -49.657186 -0.652504 0.224993 0.221851 -9.404112 4.381618 3.260508 0.000000 0.000000 0.000000 -6.325957 -7.209579 -0.268521 0.331106 7.871186 -0.233585 -3.005673 -19.367118 -2.400003 20.388405 3.293710 -5.631529 0.000000 0.000000 0.000000 0.000000 0.000000 0.000000 -23.028303 11.501363 3.317593 25.574031 -16.693459 4.001294 5.227534 2.255330 -1.365801 -6.340552 18.905993 -7.556552 0.000000 0.000000 0.000000 0.000000 0.000000 0.000000 -8.069068 38.340587 -51.205794 50.446702 3.177965 16.598928 -11.766347 -17.396226 2.572039 0.000000 0.000000 0.000000 10.712177 -17.660467 -46.780045 -11.731559 25.772877 1.012819 -9.002449 -24.028774 -7.605263 0.000000 0.000000 0.000000
